<svg xmlns="http://www.w3.org/2000/svg" width="256" height="256" viewBox="0 0 256 256">
  <defs>
    <linearGradient id="a" x1="8.533" x2="247.467" y1="8.533" y2="247.467" gradientUnits="userSpaceOnUse">
      <stop offset="0" stop-color="#42d392"/>
      <stop offset="1" stop-color="#647eff"/>
    </linearGradient>
  </defs>
  <path fill="url(#a)" d="M256 128c0 23.424-6.33 45.337-17.533 63.951-11.434 19.02-28.83 34.288-49.878 43.593-21.048 9.305-44.852 12.456-68.216 8.95-23.364-3.505-44.965-14.194-62.35-29.99-17.383-15.797-30.085-36.033-36.4-58.495C15.27 138.127 12.8 113.35 18.24 89.58s18.45-44.97 35.845-62.35C71.48 9.845 93.08.155 116.445-3.35c23.365-3.505 47.17-0.354 68.218 8.95C205.712 14.907 223.11 30.175 234.543 49.198 245.73 67.812 252.06 89.725 252.06 113.15V128Z"/>
  <path fill="#fff" d="M128 200.8c-18.182 0-35.1-7.104-47.94-19.94-12.838-12.837-19.94-29.758-19.94-47.94s7.102-35.103 19.94-47.94C92.9 72.102 109.818 65 128 65c13.842 0 26.88 4.24 37.89 11.83l-18.42 31.905A25.264 25.264 0 0 0 128 102.8c-14.137 0-25.6 11.463-25.6 25.6s11.463 25.6 25.6 25.6a25.534 25.534 0 0 0 19.47-9.33l18.42 31.904A64.71 64.71 0 0 1 128 200.8Z"/>
</svg>
